<?xml version="1.0" encoding="UTF-8" standalone="no"?>
<!-- Uploaded to: SVG Repo, www.svgrepo.com, Generator: SVG Repo Mixer Tools -->

<svg
   fill="#000000"
   width="800px"
   height="800px"
   viewBox="0 0 32 32"
   version="1.1"
   id="svg1"
   sodipodi:docname="logout.svg"
   inkscape:version="1.4.2 (f4327f4, 2025-05-13)"
   xmlns:inkscape="http://www.inkscape.org/namespaces/inkscape"
   xmlns:sodipodi="http://sodipodi.sourceforge.net/DTD/sodipodi-0.dtd"
   xmlns="http://www.w3.org/2000/svg"
   xmlns:svg="http://www.w3.org/2000/svg">
  <defs
     id="defs1" />
  <sodipodi:namedview
     id="namedview1"
     pagecolor="#505050"
     bordercolor="#ffffff"
     borderopacity="1"
     inkscape:showpageshadow="0"
     inkscape:pageopacity="0"
     inkscape:pagecheckerboard="1"
     inkscape:deskcolor="#505050"
     inkscape:zoom="0.96625"
     inkscape:cx="400"
     inkscape:cy="400"
     inkscape:window-width="1920"
     inkscape:window-height="991"
     inkscape:window-x="-9"
     inkscape:window-y="-9"
     inkscape:window-maximized="1"
     inkscape:current-layer="svg1" />
  <title
     id="title1">logout</title>
  <path
     d="M0 9.875v12.219c0 1.125 0.469 2.125 1.219 2.906 0.75 0.75 1.719 1.156 2.844 1.156h6.125v-2.531h-6.125c-0.844 0-1.5-0.688-1.5-1.531v-12.219c0-0.844 0.656-1.5 1.5-1.5h6.125v-2.563h-6.125c-1.125 0-2.094 0.438-2.844 1.188-0.75 0.781-1.219 1.75-1.219 2.875zM6.719 13.563v4.875c0 0.563 0.5 1.031 1.063 1.031h5.656v3.844c0 0.344 0.188 0.625 0.5 0.781 0.125 0.031 0.25 0.031 0.313 0.031 0.219 0 0.406-0.063 0.563-0.219l7.344-7.344c0.344-0.281 0.313-0.844 0-1.156l-7.344-7.313c-0.438-0.469-1.375-0.188-1.375 0.563v3.875h-5.656c-0.563 0-1.063 0.469-1.063 1.031z"
     id="path1"
     style="fill:#42d1f3;fill-opacity:1" />
</svg>
